<svg width="20" height="20" viewBox="0 0 20 20" fill="none" xmlns="http://www.w3.org/2000/svg">
	<g clip-path="url(#clip0_2169_2459)">
		<path d="M19.5177 13.8185L16.7752 11.076C16.6988 10.9946 16.6068 10.9294 16.5046 10.8842C16.4025 10.8391 16.2923 10.8149 16.1807 10.8132C16.069 10.8115 15.9582 10.8322 15.8547 10.8741C15.7512 10.9161 15.6572 10.9784 15.5783 11.0574C15.4994 11.1364 15.4371 11.2304 15.3952 11.3339C15.3534 11.4375 15.3327 11.5483 15.3345 11.66C15.3363 11.7716 15.3606 11.8818 15.4058 11.9839C15.451 12.086 15.5163 12.1779 15.5977 12.2543L17.5061 14.166C16.4687 14.1683 15.4413 13.9631 14.4844 13.5624C13.5275 13.1617 12.6605 12.5735 11.9344 11.8327C11.8538 11.7584 11.759 11.7011 11.6558 11.6642C11.5526 11.6272 11.4431 11.6114 11.3336 11.6176C11.2242 11.6238 11.1171 11.652 11.0187 11.7004C10.9204 11.7487 10.8328 11.8164 10.7611 11.8993L10.7502 11.916C10.6101 12.079 10.5384 12.2898 10.5501 12.5044C10.5617 12.719 10.6558 12.9208 10.8127 13.0677C11.6876 13.9524 12.7308 14.6529 13.8808 15.1278C15.0308 15.6027 16.2644 15.8424 17.5086 15.8327L15.5977 17.7435C15.5106 17.8184 15.44 17.9105 15.3902 18.014C15.3404 18.1174 15.3125 18.2301 15.3084 18.3449C15.3042 18.4597 15.3237 18.5741 15.3659 18.6809C15.408 18.7878 15.4717 18.8847 15.5531 18.9658C15.6345 19.0468 15.7318 19.1102 15.8388 19.1518C15.9458 19.1935 16.0603 19.2126 16.1751 19.2079C16.2898 19.2032 16.4024 19.1749 16.5056 19.1247C16.6089 19.0744 16.7007 19.0034 16.7752 18.916L19.5177 16.1735C19.8297 15.861 20.0049 15.4375 20.0049 14.996C20.0049 14.5545 19.8297 14.131 19.5177 13.8185V13.8185Z" fill="#202224" />
		<path d="M17.5059 5.83295L15.5976 7.74129C15.5814 7.76322 15.5663 7.78603 15.5526 7.80962C15.4181 7.97358 15.3518 8.18295 15.3673 8.39443C15.3829 8.60591 15.4791 8.80334 15.6361 8.94588C15.7931 9.08843 15.9988 9.1652 16.2108 9.16031C16.4228 9.15542 16.6248 9.06925 16.7751 8.91962L18.1968 7.49962L19.5184 6.17879C19.7419 5.95358 19.8964 5.66928 19.9639 5.35929C20.0313 5.04929 20.0089 4.72648 19.8993 4.42879C19.8183 4.20091 19.688 3.99375 19.5176 3.82212L16.7751 1.08295C16.699 1.0003 16.607 0.933873 16.5046 0.887678C16.4022 0.841483 16.2915 0.816471 16.1792 0.814144C16.0669 0.811817 15.9553 0.832223 15.851 0.874137C15.7468 0.91605 15.6521 0.978606 15.5727 1.05804C15.4933 1.13748 15.4307 1.23216 15.3888 1.33639C15.3469 1.44062 15.3265 1.55224 15.3288 1.66456C15.3311 1.77688 15.3561 1.88756 15.4023 1.98997C15.4485 2.09237 15.5149 2.18438 15.5976 2.26045L17.5084 4.17045C13.3976 4.18045 11.1443 6.39879 9.10095 8.73212C7.22429 6.61379 5.00012 4.49962 1.23929 4.20462L0.838459 4.16629C0.617446 4.16629 0.405484 4.25409 0.249204 4.41037C0.0929242 4.56665 0.00512695 4.77861 0.00512695 4.99962C0.00939374 5.2193 0.0985608 5.42879 0.253926 5.58416C0.40929 5.73952 0.618782 5.82869 0.838459 5.83295C0.898459 5.83295 1.07763 5.86045 1.07763 5.86045C4.32429 6.10629 6.18762 7.93462 8.00012 9.99962C6.19845 12.0546 4.34762 13.9163 1.12763 14.133L0.794293 14.1505C0.574937 14.1642 0.370009 14.2644 0.22459 14.4292C0.0791713 14.594 0.0051741 14.8098 0.0188769 15.0292C0.0325798 15.2486 0.13286 15.4535 0.297658 15.5989C0.462455 15.7443 0.67827 15.8183 0.897626 15.8046C1.02763 15.7988 1.23929 15.7938 1.34346 15.7855C5.52679 15.463 7.79595 12.7855 9.81928 10.4446C11.8626 8.08295 13.7926 5.84795 17.5059 5.83295Z" fill="#202224" />
	</g>
	<defs>
		<clipPath id="clip0_2169_2459">
			<rect width="20" height="20" fill="white" />
		</clipPath>
	</defs>
</svg>
