<svg width="18" height="19" viewBox="0 0 18 19" fill="none" xmlns="http://www.w3.org/2000/svg">
<path d="M16.2451 8.32988L15.5101 11.4649C14.8801 14.1724 13.6351 15.2674 11.2951 15.0424C10.9201 15.0124 10.5151 14.9449 10.0801 14.8399L8.82013 14.5399C5.69263 13.7974 4.72513 12.2524 5.46013 9.11738L6.19513 5.97488C6.34513 5.33738 6.52513 4.78238 6.75013 4.32488C7.62763 2.50988 9.12013 2.02238 11.6251 2.61488L12.8776 2.90738C16.0201 3.64238 16.9801 5.19488 16.2451 8.32988Z" stroke="#A4A1B3" stroke-width="1.25" stroke-linecap="round" stroke-linejoin="round"/>
<path d="M11.2957 15.0427C10.8307 15.3577 10.2457 15.6202 9.53324 15.8527L8.34824 16.2427C5.37074 17.2027 3.80324 16.4002 2.83574 13.4227L1.87574 10.4602C0.915744 7.4827 1.71074 5.9077 4.68824 4.9477L5.87324 4.5577C6.18074 4.4602 6.47324 4.3777 6.75074 4.3252C6.52574 4.7827 6.34574 5.3377 6.19574 5.9752L5.46074 9.1177C4.72574 12.2527 5.69324 13.7977 8.82074 14.5402L10.0807 14.8402C10.5157 14.9452 10.9207 15.0127 11.2957 15.0427Z" stroke="#A4A1B3" stroke-width="1.25" stroke-linecap="round" stroke-linejoin="round"/>
<path d="M9.48047 6.89746L13.118 7.81996" stroke="#A4A1B3" stroke-width="1.25" stroke-linecap="round" stroke-linejoin="round"/>
<path d="M8.74414 9.7998L10.9191 10.3548" stroke="#A4A1B3" stroke-width="1.25" stroke-linecap="round" stroke-linejoin="round"/>
</svg>
