<svg width="18" height="18" viewBox="0 0 18 18" fill="none" xmlns="http://www.w3.org/2000/svg">
<path d="M9.50804 15.4672C9.71409 15.5152 9.73297 15.7851 9.53227 15.852L8.34727 16.242C5.36977 17.202 3.80227 16.3995 2.83477 13.422L1.87477 10.4595C0.914768 7.48195 1.70977 5.90695 4.68727 4.94695L4.9956 4.84484C5.33132 4.73366 5.65967 5.071 5.56696 5.41228C5.53286 5.53779 5.49975 5.66768 5.46727 5.80195L4.73227 8.94445C3.90727 12.477 5.11477 14.427 8.64727 15.267L9.50804 15.4672Z" fill="#FCFAFF"/>
<path d="M12.8776 2.90836L11.6251 2.61586C9.12013 2.02336 7.62763 2.51086 6.75013 4.32586C6.52513 4.78336 6.34513 5.33836 6.19513 5.97586L5.46013 9.11836C4.72513 12.2534 5.69263 13.7984 8.82014 14.5409L10.0801 14.8409C10.5151 14.9459 10.9201 15.0134 11.2951 15.0434C13.6351 15.2684 14.8801 14.1734 15.5101 11.4659L16.2451 8.33086C16.9801 5.19586 16.0201 3.64336 12.8776 2.90836ZM11.4676 10.4984C11.4001 10.7534 11.1751 10.9184 10.9201 10.9184C10.8751 10.9184 10.8301 10.9109 10.7776 10.9034L8.59513 10.3484C8.29513 10.2734 8.11513 9.96586 8.19013 9.66586C8.26513 9.36586 8.57263 9.18586 8.87263 9.26086L11.0551 9.81586C11.3626 9.89086 11.5426 10.1984 11.4676 10.4984ZM13.6651 7.96336C13.5976 8.21836 13.3726 8.38336 13.1176 8.38336C13.0726 8.38336 13.0276 8.37586 12.9751 8.36836L9.33763 7.44586C9.03763 7.37086 8.85763 7.06336 8.93263 6.76336C9.00763 6.46336 9.31513 6.28336 9.61513 6.35836L13.2526 7.28086C13.5601 7.34836 13.7401 7.65586 13.6651 7.96336Z" fill="#FCFAFF"/>
</svg>
