<svg width="18" height="18" viewBox="0 0 18 18" fill="none" xmlns="http://www.w3.org/2000/svg">
  <path d="M14.994 4.06508L10.9011 1.82258C10.1173 1.39508 8.89023 1.39508 8.10648 1.82258L3.97398 4.08008C2.33523 5.13008 2.24023 5.28758 2.24023 6.96008V11.0326C2.24023 12.7051 2.33523 12.8701 4.00565 13.9351L8.09857 16.1776C8.4944 16.3951 9.00107 16.5001 9.49982 16.5001C9.99857 16.5001 10.5052 16.3951 10.8932 16.1776L15.0257 13.9201C16.6644 12.8701 16.7594 12.7126 16.7594 11.0401V6.96008C16.7594 5.28758 16.6644 5.13008 14.994 4.06508ZM9.49982 11.4376C8.08273 11.4376 6.9269 10.3426 6.9269 9.00008C6.9269 7.65758 8.08273 6.56258 9.49982 6.56258C10.9169 6.56258 12.0727 7.65758 12.0727 9.00008C12.0727 10.3426 10.9169 11.4376 9.49982 11.4376Z" fill="#292D32" />
</svg>