<svg width="35" height="54" viewBox="0 0 35 54" fill="none" xmlns="http://www.w3.org/2000/svg">
<rect x="33.5" width="1" height="54" fill="#387ABB"/>
<path d="M23.232 15.872L16.944 24.032C19.28 24.704 21.136 25.888 22.512 27.584C23.92 29.28 24.624 31.296 24.624 33.632C24.624 37.088 23.456 39.792 21.12 41.744C18.848 43.696 16.016 44.672 12.624 44.672C9.968 44.672 7.616 44.064 5.568 42.848C3.52 41.6 2.032 39.84 1.104 37.568L6.768 34.304C7.568 36.896 9.52 38.192 12.624 38.192C14.32 38.192 15.632 37.792 16.56 36.992C17.52 36.16 18 35.04 18 33.632C18 32.256 17.52 31.152 16.56 30.32C15.632 29.488 14.32 29.072 12.624 29.072H11.184L8.64 25.232L15.264 16.592H2.112V10.4H23.232V15.872Z" fill="#387ABB"/>
</svg>
