<svg width="35" height="54" viewBox="0 0 35 54" fill="none" xmlns="http://www.w3.org/2000/svg">
<rect x="33.5" width="1" height="54" fill="#387ABB"/>
<path d="M23.76 44H1.296V39.056L12.768 27.248C15.328 24.528 16.608 22.288 16.608 20.528C16.608 19.216 16.192 18.16 15.36 17.36C14.56 16.56 13.52 16.16 12.24 16.16C9.68 16.16 7.808 17.472 6.624 20.096L1.056 16.832C2.08 14.56 3.568 12.816 5.52 11.6C7.504 10.352 9.712 9.728 12.144 9.728C15.184 9.728 17.792 10.688 19.968 12.608C22.144 14.496 23.232 17.056 23.232 20.288C23.232 23.776 21.392 27.36 17.712 31.04L11.136 37.616H23.76V44Z" fill="#387ABB"/>
</svg>
