<svg width="12" height="11" viewBox="0 0 12 11" fill="none" xmlns="http://www.w3.org/2000/svg">
<path fill-rule="evenodd" clip-rule="evenodd" d="M5.99976 0.0466461C5.35186 0.0466461 4.91497 0.452457 4.60363 0.855536C4.30301 1.24472 3.99074 1.80243 3.62911 2.44831L3.62911 2.44831L3.60037 2.49964L1.17928 6.823L1.15092 6.87364C0.803994 7.49305 0.50287 8.03068 0.333581 8.4763C0.15692 8.94133 0.0441075 9.50789 0.362774 10.0516C0.681442 10.5953 1.23089 10.7737 1.72295 10.8467C2.19447 10.9168 2.81069 10.9167 3.52064 10.9167L3.57868 10.9167H8.42085L8.47888 10.9167C9.18883 10.9167 9.80505 10.9168 10.2766 10.8467C10.7686 10.7737 11.3181 10.5953 11.6367 10.0516C11.9554 9.50789 11.8426 8.94133 11.6659 8.4763C11.4967 8.03069 11.1955 7.49308 10.8486 6.87369L10.8486 6.87366L10.8202 6.823L8.39915 2.49964L8.37041 2.44831L8.37041 2.4483C8.00877 1.80243 7.69651 1.24472 7.39589 0.855535C7.08455 0.452457 6.64766 0.0466461 5.99976 0.0466461ZM6.49976 4.75C6.49976 4.47386 6.2759 4.25 5.99976 4.25C5.72362 4.25 5.49976 4.47386 5.49976 4.75V6.41666C5.49976 6.69281 5.72362 6.91666 5.99976 6.91666C6.2759 6.91666 6.49976 6.69281 6.49976 6.41666V4.75ZM6.41643 7.66666C6.41643 7.89678 6.22988 8.08333 5.99976 8.08333C5.76964 8.08333 5.5831 7.89678 5.5831 7.66666C5.5831 7.43655 5.76964 7.25 5.99976 7.25C6.22988 7.25 6.41643 7.43655 6.41643 7.66666Z" fill="#FD4C4C"/>
</svg>
