<svg width="24" height="12" viewBox="0 0 24 12" fill="none" xmlns="http://www.w3.org/2000/svg">
<path d="M23.8489 5.60622C23.6331 5.37727 18.4863 0 12.0002 0C5.51416 0 0.367064 5.37711 0.151058 5.60622C-0.0503525 5.81982 -0.0503525 6.1536 0.151058 6.36685C0.366942 6.5958 5.51416 11.9731 12.0002 11.9731C18.4863 11.9731 23.6334 6.59597 23.8489 6.36685C24.0504 6.15361 24.0504 5.81983 23.8489 5.60622ZM12.0273 10.7868C9.38357 10.7868 7.23272 8.63601 7.23272 5.99169C7.23272 3.34774 9.38348 1.19707 12.0273 1.19707C14.6713 1.19707 16.8224 3.34819 16.8224 5.99169C16.8224 8.63601 14.6712 10.7868 12.0273 10.7868ZM7.79981 1.90429C6.77509 2.96358 6.14279 4.40472 6.14279 5.99146C6.14279 7.56885 6.76767 9.0024 7.78164 10.0597C4.67097 8.909 2.25359 6.8375 1.34619 5.986C2.25441 5.13232 4.67716 3.05292 7.79972 1.90429H7.79981ZM16.3004 10.0312C17.2983 8.97664 17.9122 7.55493 17.9122 5.99146C17.9122 4.42149 17.293 2.99449 16.2879 1.93818C19.3652 3.09368 21.7531 5.14172 22.6538 5.98672C21.7556 6.83136 19.3747 8.87569 16.3006 10.0312H16.3004Z" fill="#2C2C2C" fill-opacity="0.4"/>
<path d="M12.0278 3.17865C10.4795 3.17865 9.21984 4.43831 9.21984 5.98709C9.21984 7.53588 10.4795 8.79554 12.0278 8.79554C13.5766 8.79554 14.8368 7.53552 14.8368 5.98709C14.8368 4.43863 13.5764 3.17865 12.0278 3.17865ZM12.0278 7.68704C11.0906 7.68704 10.3284 6.92464 10.3284 5.98732C10.3284 5.05 11.0908 4.2876 12.0278 4.2876C12.9653 4.2876 13.728 5.05 13.728 5.98732C13.728 6.92446 12.9653 7.68704 12.0278 7.68704Z" fill="#2C2C2C" fill-opacity="0.4"/>
</svg>
