<svg width="24" height="16" viewBox="0 0 24 16" fill="none" xmlns="http://www.w3.org/2000/svg">
<path d="M23.8489 7.31008C23.7006 7.14204 21.2253 4.37847 17.5877 2.66455L19.1353 1.01096C19.352 0.779791 19.352 0.404727 19.1353 0.173378C18.9189 -0.0577928 18.5679 -0.0577928 18.3516 0.173378L16.466 2.18818C15.1936 1.70391 13.8076 1.37607 12.3492 1.32964C12.2424 1.32365 12.1351 1.32028 12.0273 1.32028C12.0225 1.32028 12.0182 1.32046 12.0138 1.32046C12.0092 1.32046 12.0047 1.32028 12.0003 1.32028C5.51427 1.32028 0.367552 7.06563 0.151217 7.31021C-0.0504057 7.5382 -0.0504057 7.89487 0.151217 8.12286C0.300942 8.29259 2.82368 11.1069 6.51919 12.8171L4.86468 14.585C4.64833 14.8162 4.64833 15.1914 4.86468 15.4224C4.97267 15.5383 5.11469 15.5959 5.25653 15.5959C5.39836 15.5959 5.54037 15.5382 5.64838 15.4224L7.64759 13.2866C8.99111 13.7852 10.4568 14.1129 12.0003 14.1129C12.0049 14.1129 12.0094 14.1127 12.0138 14.1127C12.0184 14.1127 12.0229 14.1129 12.0273 14.1129C12.1353 14.1129 12.2425 14.1093 12.3492 14.1035C18.6696 13.9034 23.6364 8.36297 23.8487 8.1227C24.0504 7.89415 24.0504 7.53785 23.8487 7.30986L23.8489 7.31008ZM12.2323 12.9226C12.1599 12.9243 12.0878 12.9277 12.0151 12.9277C10.8869 12.9245 9.84827 12.5093 9.02265 11.8168L10.5043 10.2336C10.9437 10.5384 11.4662 10.7173 12.0277 10.7173C13.5765 10.7173 14.8364 9.3709 14.8364 7.71636C14.8364 7.11612 14.6689 6.55808 14.3837 6.08843L15.8657 4.50486C16.516 5.39078 16.9056 6.50542 16.9056 7.71616C16.9052 10.5168 14.8274 12.8079 12.2324 12.9225L12.2323 12.9226ZM10.3281 7.71629C10.3281 6.71478 11.0904 5.90007 12.0277 5.90007C12.3071 5.90007 12.5703 5.97389 12.8037 6.10202L10.5174 8.54471C10.3971 8.29574 10.3281 8.01492 10.3281 7.71633L10.3281 7.71629ZM13.7278 7.71629C13.7278 8.71779 12.9651 9.5325 12.0277 9.5325C11.774 9.5325 11.5343 9.47106 11.3176 9.36409L13.5702 6.95756C13.6705 7.18854 13.7278 7.44519 13.7278 7.71625L13.7278 7.71629ZM13.6103 5.2395C13.1594 4.90942 12.6143 4.71552 12.0277 4.71552C10.4794 4.71552 9.21971 6.0615 9.21971 7.71624C9.21971 8.34305 9.40117 8.9253 9.7101 9.40733L8.23319 10.985C7.5568 10.0905 7.15039 8.95341 7.15039 7.71605C7.15039 4.84663 9.33161 2.51166 12.0152 2.50447C12.0896 2.50447 12.1632 2.50821 12.2374 2.5099C13.3142 2.55879 14.301 2.98236 15.0876 3.66127L13.6103 5.2395ZM1.347 7.71571C2.23379 6.82513 4.56312 4.68521 7.57853 3.44243C6.62387 4.57601 6.04165 6.07488 6.04165 7.71629C6.04165 9.28034 6.57042 10.7142 7.44599 11.8264L7.37603 11.9014C4.46215 10.647 2.21451 8.5855 1.34693 7.71574L1.347 7.71571ZM16.5053 11.9553C17.4427 10.8256 18.0141 9.34139 18.0141 7.71605C18.0141 6.17857 17.5036 4.76606 16.6546 3.66174L16.733 3.57744C19.5947 4.83576 21.7976 6.85751 22.654 7.71663C21.7754 8.59896 19.4801 10.7076 16.5055 11.9553L16.5053 11.9553Z" fill="#2C2C2C" fill-opacity="0.4"/>
</svg>
