<svg width="40" height="39" viewBox="0 0 40 39" fill="none" xmlns="http://www.w3.org/2000/svg">
<path fill-rule="evenodd" clip-rule="evenodd" d="M20 0.733276C18.1798 0.733276 16.7705 1.8289 15.3935 3.61161C14.0276 5.38003 12.5573 8.00543 10.655 11.4025L10.6205 11.464L5.51511 20.5809L5.48087 20.642L5.48085 20.6421C3.65382 23.9046 2.24015 26.429 1.47354 28.447C0.699357 30.4848 0.505092 32.2086 1.40324 33.7409C2.30139 35.2733 3.90028 35.946 6.05662 36.2663C8.19189 36.5834 11.0852 36.5834 14.8244 36.5834H14.8245H14.8945H25.1054H25.1754H25.1755C28.9148 36.5834 31.8081 36.5834 33.9433 36.2663C36.0997 35.946 37.6986 35.2733 38.5967 33.7409C39.4949 32.2086 39.3006 30.4848 38.5264 28.447C37.7598 26.429 36.3461 23.9046 34.5191 20.6421L34.5191 20.642L34.4849 20.5809L29.3794 11.464L29.345 11.4025C27.4426 8.00544 25.9724 5.38003 24.6064 3.61161C23.2294 1.8289 21.8201 0.733276 20 0.733276ZM21 15.25C21 14.6977 20.5523 14.25 20 14.25C19.4477 14.25 19 14.6977 19 15.25V21.5834C19 22.1357 19.4477 22.5834 20 22.5834C20.5523 22.5834 21 22.1357 21 21.5834V15.25ZM21.5833 26.3334C21.5833 27.2078 20.8744 27.9167 20 27.9167C19.1255 27.9167 18.4167 27.2078 18.4167 26.3334C18.4167 25.4589 19.1255 24.75 20 24.75C20.8744 24.75 21.5833 25.4589 21.5833 26.3334Z" fill="#FD4C4C"/>
</svg>
