<svg width="22" height="22" viewBox="0 0 22 22" fill="none" xmlns="http://www.w3.org/2000/svg">
<path fill-rule="evenodd" clip-rule="evenodd" d="M9.72982 0.250213L9.62102 0.250105C9.10842 0.24934 8.65851 0.248668 8.25762 0.406335C7.90709 0.5442 7.59677 0.767864 7.35513 1.05682C7.07878 1.38727 6.93715 1.81431 6.77577 2.30085L6.74147 2.4041L6.45943 3.25021H3H1C0.585786 3.25021 0.25 3.586 0.25 4.00021C0.25 4.41443 0.585786 4.75021 1 4.75021H2.29282L2.89693 15.0201L2.89881 15.052C2.95958 16.0851 3.0078 16.9051 3.09968 17.5654C3.19376 18.2415 3.34057 18.8115 3.63159 19.3289C4.10467 20.1699 4.8227 20.847 5.6901 21.2698C6.22368 21.53 6.80125 21.6431 7.48175 21.6973C8.14635 21.7502 8.9677 21.7502 10.0027 21.7502H10.0346H11.9654H11.9973C13.0323 21.7502 13.8537 21.7502 14.5182 21.6973C15.1987 21.6431 15.7763 21.53 16.3099 21.2698C17.1773 20.847 17.8953 20.1699 18.3684 19.3289C18.6594 18.8115 18.8062 18.2415 18.9003 17.5654C18.9922 16.9051 19.0404 16.0853 19.1012 15.0522V15.0522L19.1012 15.0521L19.1031 15.0201L19.7072 4.75021H21C21.4142 4.75021 21.75 4.41443 21.75 4.00021C21.75 3.586 21.4142 3.25021 21 3.25021H19H15.5406L15.2585 2.4041L15.2242 2.30084C15.0629 1.8143 14.9212 1.38727 14.6449 1.05682C14.4032 0.767864 14.0929 0.5442 13.7424 0.406335C13.3415 0.248668 12.8916 0.24934 12.379 0.250105L12.2702 0.250213H9.72982ZM14.9825 4.75021C14.9941 4.75048 15.0057 4.75049 15.0173 4.75021H18.2046L17.6057 14.932C17.5426 16.0042 17.4973 16.7645 17.4146 17.3587C17.3332 17.9439 17.2226 18.3063 17.061 18.5935C16.7373 19.169 16.2461 19.6322 15.6526 19.9215C15.3564 20.0659 14.9881 20.1551 14.3991 20.202C13.8011 20.2497 13.0394 20.2502 11.9654 20.2502H10.0346C8.96057 20.2502 8.19893 20.2497 7.60087 20.202C7.01191 20.1551 6.6436 20.0659 6.34742 19.9215C5.75394 19.6322 5.26265 19.169 4.93897 18.5935C4.77743 18.3063 4.66679 17.9439 4.58537 17.3587C4.50269 16.7645 4.45741 16.0042 4.39434 14.932L3.79541 4.75021H6.9827C6.99433 4.75049 7.00594 4.75048 7.01751 4.75021H14.9825ZM13.9594 3.25021L13.8355 2.87844C13.6186 2.22761 13.5633 2.10174 13.4942 2.01908C13.4137 1.92276 13.3102 1.84821 13.1934 1.80225C13.0931 1.76282 12.9562 1.75021 12.2702 1.75021H9.72982C9.04379 1.75021 8.90691 1.76282 8.80663 1.80225C8.68979 1.84821 8.58635 1.92276 8.5058 2.01908C8.43668 2.10174 8.38144 2.22761 8.16449 2.87844L8.04057 3.25021H13.9594ZM9.75 9.00021C9.75 8.586 9.41421 8.25021 9 8.25021C8.58579 8.25021 8.25 8.586 8.25 9.00021V16.0002C8.25 16.4144 8.58579 16.7502 9 16.7502C9.41421 16.7502 9.75 16.4144 9.75 16.0002V9.00021ZM13 8.25021C13.4142 8.25021 13.75 8.586 13.75 9.00021V13.0002C13.75 13.4144 13.4142 13.7502 13 13.7502C12.5858 13.7502 12.25 13.4144 12.25 13.0002V9.00021C12.25 8.586 12.5858 8.25021 13 8.25021Z" fill="#FD4C4C"/>
</svg>
