<svg width="20" height="21" viewBox="0 0 20 21" fill="none" xmlns="http://www.w3.org/2000/svg">
	<path d="M20 10.5C20 12.4778 19.4135 14.4112 18.3147 16.0557C17.2159 17.7002 15.6541 18.9819 13.8268 19.7388C11.9996 20.4957 9.98891 20.6937 8.0491 20.3079C6.10929 19.922 4.32746 18.9696 2.92894 17.5711C1.53041 16.1725 0.578004 14.3907 0.192152 12.4509C-0.193701 10.5111 0.00433286 8.50043 0.761209 6.67317C1.51809 4.8459 2.79981 3.28412 4.4443 2.1853C6.08879 1.08649 8.02219 0.5 10 0.5C12.6513 0.502868 15.1932 1.55736 17.0679 3.4321C18.9426 5.30684 19.9971 7.84872 20 10.5ZM10.8333 4.66667H9.16667V13H10.8333V4.66667ZM10.8333 14.6667H9.16667V16.3333H10.8333V14.6667Z" fill="#E53939" />
</svg>
