<svg width="292" height="38" viewBox="0 0 292 38" fill="none" xmlns="http://www.w3.org/2000/svg">
	<rect width="17.0267" height="16.9225" fill="#E5EE5C" />
	<path d="M8.51318 8.46118H14.5371L25.3308 19.2266L36.1245 8.46118H42.1485V37.9811H36.1245V16.7524L25.3308 27.0834L14.5371 16.7524V37.9811H8.51318V8.46118Z" fill="black" />
	<path d="M49.8447 8.46118H55.9067V37.9811H49.8447V8.46118Z" fill="black" />
	<path d="M63.5649 8.46118H69.5888L88.0977 18.0934V8.46118H94.1217V37.9811H88.0977V24.4393L69.5888 14.8638V37.9811H63.5649V8.46118Z" fill="black" />
	<path d="M102.521 8.46118H113.41C116.59 8.46118 119.351 8.80114 121.695 9.48106C124.039 10.161 125.977 11.1368 127.51 12.4085C129.056 13.6676 130.202 15.2037 130.949 17.0168C131.71 18.8174 132.09 20.8445 132.09 23.0984C132.09 25.2388 131.716 27.222 130.968 29.0477C130.221 30.8608 129.081 32.4347 127.548 33.7693C126.015 35.0914 124.077 36.1302 121.733 36.8856C119.389 37.6285 116.628 37.9999 113.448 37.9999L102.521 37.9811V8.46118ZM114.892 32.8061C116.691 32.8061 118.268 32.5795 119.624 32.1262C120.979 31.6603 122.107 31.0056 123.006 30.162C123.918 29.3184 124.602 28.2985 125.059 27.1023C125.515 25.9062 125.743 24.5715 125.743 23.0984C125.743 21.6504 125.515 20.3472 125.059 19.1888C124.602 18.0178 123.918 17.0294 123.006 16.2236C122.107 15.4052 120.979 14.7756 119.624 14.3349C118.268 13.8942 116.691 13.6739 114.892 13.6739H108.545V32.8061H114.892Z" fill="black" />
	<path d="M138.152 8.46118H144.176L154.969 19.2266L165.763 8.46118H171.787V37.9811H165.763V16.7524L154.969 27.0834L144.176 16.7524V37.9811H138.152V8.46118Z" fill="black" />
	<path d="M190.372 8.46118H196.757L211.123 37.9811H204.795L202.42 33.0139H185.07L182.771 37.9811H176.424L190.372 8.46118ZM200.044 28.0844L193.621 14.6749L187.369 28.0844H200.044Z" fill="black" />
	<path d="M215.741 8.46118H242.307V13.7117H221.765V21.4363H239.21V26.3658H221.765V37.9811H215.741V8.46118Z" fill="black" />
	<path d="M247.362 8.46118H253.424V37.9811H247.362V8.46118Z" fill="black" />
	<path d="M271.249 8.46118H277.634L292 37.9811H285.672L283.296 33.0139H265.947L263.647 37.9811H257.3L271.249 8.46118ZM280.921 28.0844L274.498 14.6749L268.246 28.0844H280.921Z" fill="black" />
</svg>
