<svg width="40" height="20" viewBox="0 0 40 20" fill="none" xmlns="http://www.w3.org/2000/svg">
<path d="M10 5C10 4.66848 10.1317 4.35054 10.3661 4.11612C10.6005 3.8817 10.9185 3.75 11.25 3.75H28.75C29.0815 3.75 29.3995 3.8817 29.6339 4.11612C29.8683 4.35054 30 4.66848 30 5V15C30 15.3315 29.8683 15.6495 29.6339 15.8839C29.3995 16.1183 29.0815 16.25 28.75 16.25H11.25C10.9185 16.25 10.6005 16.1183 10.3661 15.8839C10.1317 15.6495 10 15.3315 10 15V5ZM13.75 5C13.75 5.66304 13.4866 6.29893 13.0178 6.76777C12.5489 7.23661 11.913 7.5 11.25 7.5V12.5C11.913 12.5 12.5489 12.7634 13.0178 13.2322C13.4866 13.7011 13.75 14.337 13.75 15H26.25C26.25 14.337 26.5134 13.7011 26.9822 13.2322C27.4511 12.7634 28.087 12.5 28.75 12.5V7.5C28.087 7.5 27.4511 7.23661 26.9822 6.76777C26.5134 6.29893 26.25 5.66304 26.25 5H13.75Z" fill="#21272A"/>
<path d="M20 12.5C20.663 12.5 21.2989 12.2366 21.7678 11.7678C22.2366 11.2989 22.5 10.663 22.5 10C22.5 9.33696 22.2366 8.70107 21.7678 8.23223C21.2989 7.76339 20.663 7.5 20 7.5C19.337 7.5 18.7011 7.76339 18.2322 8.23223C17.7634 8.70107 17.5 9.33696 17.5 10C17.5 10.663 17.7634 11.2989 18.2322 11.7678C18.7011 12.2366 19.337 12.5 20 12.5Z" fill="#21272A"/>
</svg>
