<svg width="40" height="20" viewBox="0 0 40 20" fill="none" xmlns="http://www.w3.org/2000/svg">
<path d="M10 5.5C10 4.83696 10.2634 4.20107 10.7322 3.73223C11.2011 3.26339 11.837 3 12.5 3H27.5C28.163 3 28.7989 3.26339 29.2678 3.73223C29.7366 4.20107 30 4.83696 30 5.5V15.5C30 16.163 29.7366 16.7989 29.2678 17.2678C28.7989 17.7366 28.163 18 27.5 18H12.5C11.837 18 11.2011 17.7366 10.7322 17.2678C10.2634 16.7989 10 16.163 10 15.5V5.5ZM12.5 4.25C12.1685 4.25 11.8505 4.3817 11.6161 4.61612C11.3817 4.85054 11.25 5.16848 11.25 5.5V6.75H28.75V5.5C28.75 5.16848 28.6183 4.85054 28.3839 4.61612C28.1495 4.3817 27.8315 4.25 27.5 4.25H12.5ZM28.75 9.25H11.25V15.5C11.25 15.8315 11.3817 16.1495 11.6161 16.3839C11.8505 16.6183 12.1685 16.75 12.5 16.75H27.5C27.8315 16.75 28.1495 16.6183 28.3839 16.3839C28.6183 16.1495 28.75 15.8315 28.75 15.5V9.25Z" fill="#21272A"/>
<path d="M12.5 12.5C12.5 12.1685 12.6317 11.8505 12.8661 11.6161C13.1005 11.3817 13.4185 11.25 13.75 11.25H15C15.3315 11.25 15.6495 11.3817 15.8839 11.6161C16.1183 11.8505 16.25 12.1685 16.25 12.5V13.75C16.25 14.0815 16.1183 14.3995 15.8839 14.6339C15.6495 14.8683 15.3315 15 15 15H13.75C13.4185 15 13.1005 14.8683 12.8661 14.6339C12.6317 14.3995 12.5 14.0815 12.5 13.75V12.5Z" fill="#21272A"/>
</svg>

