<svg width="24" height="15" viewBox="0 0 24 15" fill="none" xmlns="http://www.w3.org/2000/svg">
<path d="M23.8489 6.84136C23.7006 6.6841 21.2253 4.09772 17.5877 2.4937L19.1353 0.94614C19.352 0.729792 19.352 0.378776 19.1353 0.162262C18.9189 -0.0540872 18.5679 -0.0540872 18.3516 0.162262L16.466 2.04788C15.1936 1.59465 13.8076 1.28783 12.3492 1.24439C12.2424 1.23878 12.1351 1.23562 12.0273 1.23562C12.0225 1.23562 12.0182 1.2358 12.0138 1.2358C12.0092 1.2358 12.0047 1.23562 12.0003 1.23562C5.51427 1.23562 0.367552 6.61258 0.151217 6.84149C-0.0504057 7.05485 -0.0504057 7.38865 0.151217 7.60202C0.300942 7.76087 2.82368 10.3948 6.51919 11.9953L4.86468 13.6498C4.64833 13.8662 4.64833 14.2173 4.86468 14.4335C4.97267 14.542 5.11469 14.5959 5.25653 14.5959C5.39836 14.5959 5.54037 14.5419 5.64838 14.4335L7.64759 12.4346C8.99111 12.9013 10.4568 13.208 12.0003 13.208C12.0049 13.208 12.0094 13.2078 12.0138 13.2078C12.0184 13.2078 12.0229 13.208 12.0273 13.208C12.1353 13.208 12.2425 13.2046 12.3492 13.1992C18.6696 13.012 23.6364 7.82674 23.8487 7.60188C24.0504 7.38798 24.0504 7.05453 23.8487 6.84116L23.8489 6.84136ZM12.2323 12.094C12.1599 12.0956 12.0878 12.0987 12.0151 12.0987C10.8869 12.0958 9.84827 11.7072 9.02265 11.0591L10.5043 9.5774C10.9437 9.86265 11.4662 10.0301 12.0277 10.0301C13.5765 10.0301 14.8364 8.77005 14.8364 7.22159C14.8364 6.65983 14.6689 6.13758 14.3837 5.69804L15.8657 4.21601C16.516 5.04513 16.9056 6.0883 16.9056 7.22141C16.9052 9.84247 14.8274 11.9866 12.2324 12.0939L12.2323 12.094ZM10.3281 7.22152C10.3281 6.28423 11.0904 5.52176 12.0277 5.52176C12.3071 5.52176 12.5703 5.59084 12.8037 5.71076L10.5174 7.99682C10.3971 7.76382 10.3281 7.501 10.3281 7.22156L10.3281 7.22152ZM13.7278 7.22152C13.7278 8.15881 12.9651 8.92128 12.0277 8.92128C11.774 8.92128 11.5343 8.86378 11.3176 8.76366L13.5702 6.51144C13.6705 6.72762 13.7278 6.96781 13.7278 7.22149L13.7278 7.22152ZM13.6103 4.90355C13.1594 4.59463 12.6143 4.41316 12.0277 4.41316C10.4794 4.41316 9.21971 5.67284 9.21971 7.22148C9.21971 7.8081 9.40117 8.35302 9.7101 8.80414L8.23319 10.2807C7.5568 9.44354 7.15039 8.37932 7.15039 7.2213C7.15039 4.53587 9.33161 2.35061 12.0152 2.34388C12.0896 2.34388 12.1632 2.34739 12.2374 2.34897C13.3142 2.39472 14.301 2.79113 15.0876 3.42651L13.6103 4.90355ZM1.347 7.22098C2.23379 6.38751 4.56312 4.38479 7.57853 3.2217C6.62387 4.28259 6.04165 5.68536 6.04165 7.22152C6.04165 8.68528 6.57042 10.0272 7.44599 11.0681L7.37603 11.1382C4.46215 9.96429 2.21451 8.035 1.34693 7.22101L1.347 7.22098ZM16.5053 11.1887C17.4427 10.1315 18.0141 8.74242 18.0141 7.2213C18.0141 5.7824 17.5036 4.46046 16.6546 3.42695L16.733 3.34805C19.5947 4.52569 21.7976 6.41781 22.654 7.22184C21.7754 8.0476 19.4801 10.0211 16.5055 11.1887L16.5053 11.1887Z" fill="#2C2C2C" fill-opacity="0.4"/>
</svg>
