<svg width="25" height="12" viewBox="0 0 25 12" fill="none" xmlns="http://www.w3.org/2000/svg">
<path d="M24.3489 5.60622C24.1331 5.37727 18.9863 0 12.5002 0C6.01416 0 0.867064 5.37711 0.651058 5.60622C0.449647 5.81982 0.449647 6.1536 0.651058 6.36685C0.866942 6.5958 6.01416 11.9731 12.5002 11.9731C18.9863 11.9731 24.1334 6.59597 24.3489 6.36685C24.5504 6.15361 24.5504 5.81983 24.3489 5.60622ZM12.5273 10.7868C9.88357 10.7868 7.73272 8.63601 7.73272 5.99169C7.73272 3.34774 9.88348 1.19707 12.5273 1.19707C15.1713 1.19707 17.3224 3.34819 17.3224 5.99169C17.3224 8.63601 15.1712 10.7868 12.5273 10.7868ZM8.29981 1.90429C7.27509 2.96358 6.64279 4.40472 6.64279 5.99146C6.64279 7.56885 7.26767 9.0024 8.28164 10.0597C5.17097 8.909 2.75359 6.8375 1.84619 5.986C2.75441 5.13232 5.17716 3.05292 8.29972 1.90429H8.29981ZM16.8004 10.0312C17.7983 8.97664 18.4122 7.55493 18.4122 5.99146C18.4122 4.42149 17.793 2.99449 16.7879 1.93818C19.8652 3.09368 22.2531 5.14172 23.1538 5.98672C22.2556 6.83136 19.8747 8.87569 16.8006 10.0312H16.8004Z" fill="#2C2C2C"/>
<path d="M12.5277 3.17859C10.9794 3.17859 9.71973 4.43825 9.71973 5.98703C9.71973 7.53582 10.9794 8.79548 12.5277 8.79548C14.0765 8.79548 15.3367 7.53546 15.3367 5.98703C15.3367 4.43857 14.0763 3.17859 12.5277 3.17859ZM12.5277 7.68698C11.5905 7.68698 10.8283 6.92458 10.8283 5.98726C10.8283 5.04994 11.5907 4.28754 12.5277 4.28754C13.4652 4.28754 14.2279 5.04994 14.2279 5.98726C14.2279 6.9244 13.4652 7.68698 12.5277 7.68698Z" fill="#2C2C2C"/>
</svg>
